<svg width="639" height="639" xmlns="http://www.w3.org/2000/svg" xmlns:xlink="http://www.w3.org/1999/xlink" xml:space="preserve" overflow="hidden"><defs><clipPath id="clip0"><rect x="1695" y="730" width="639" height="639"/></clipPath></defs><g clip-path="url(#clip0)" transform="translate(-1695 -730)"><path d="M1695 836.502C1695 777.683 1742.68 730 1801.5 730L2227.5 730C2286.32 730 2334 777.683 2334 836.502L2334 1262.5C2334 1321.32 2286.32 1369 2227.5 1369L1801.5 1369C1742.68 1369 1695 1321.32 1695 1262.5Z" fill="#FFFFFF" fill-rule="evenodd"/><path d="M2268.82 1123.9C2306.76 942.48 2142.15 867.347 2142.15 896.668 2142.15 925.988 2150.72 975.771 2142.15 984.628 2133.59 993.485 1935.94 969.357 1892.49 1004.79 1849.04 1040.21 1827.63 1115.96 2101.77 1270.5" stroke="#CB997E" stroke-width="20.625" stroke-linecap="round" stroke-linejoin="round" stroke-miterlimit="10" fill="none" fill-rule="evenodd"/><path d="M1878.17 1019.71C1892.23 997.452 1910.86 983.981 1919.78 989.618 1928.7 995.255 1924.53 1017.86 1910.47 1040.12 1896.4 1062.37 1877.77 1075.84 1868.85 1070.21 1859.93 1064.57 1864.1 1041.96 1878.17 1019.71Z" stroke="#CB997E" stroke-width="6.875" stroke-miterlimit="8" fill="#CB997E" fill-rule="evenodd"/><path d="M2097.5 1067C2097.5 1057.89 2104.89 1050.5 2114 1050.5 2123.11 1050.5 2130.5 1057.89 2130.5 1067 2130.5 1076.11 2123.11 1083.5 2114 1083.5 2104.89 1083.5 2097.5 1076.11 2097.5 1067Z" stroke="#CB997E" stroke-width="6.875" stroke-miterlimit="8" fill="#CB997E" fill-rule="evenodd"/><path d="M1767.5 847.5C1767.5 835.902 1776.9 826.5 1788.5 826.5L1788.5 826.5C1800.1 826.5 1809.5 835.902 1809.5 847.5L1809.5 934.5C1809.5 946.098 1800.1 955.5 1788.5 955.5L1788.5 955.5C1776.9 955.5 1767.5 946.098 1767.5 934.5Z" stroke="#CB997E" stroke-width="6.875" stroke-miterlimit="8" fill="#CB997E" fill-rule="evenodd"/><path d="M1745 912.5C1733.13 912.5 1723.5 902.874 1723.5 891L1723.5 891C1723.5 879.126 1733.13 869.5 1745 869.5L1832 869.5C1843.87 869.5 1853.5 879.126 1853.5 891L1853.5 891C1853.5 902.874 1843.87 912.5 1832 912.5Z" stroke="#CB997E" stroke-width="6.875" stroke-miterlimit="8" fill="#CB997E" fill-rule="evenodd"/></g></svg>